<mxfile host="app.diagrams.net" modified="2023-01-03T23:42:09.524Z" agent="5.0 (Windows NT 10.0; Win64; x64) AppleWebKit/537.36 (KHTML, like Gecko) Chrome/108.0.0.0 Safari/537.36" etag="7_8HqBuG2_GNwkwhgxZb" version="20.8.0" type="github">
  <diagram id="R2lEEEUBdFMjLlhIrx00" name="Page-1">
    <mxGraphModel dx="1434" dy="756" grid="1" gridSize="10" guides="1" tooltips="1" connect="1" arrows="1" fold="1" page="1" pageScale="1" pageWidth="850" pageHeight="1100" math="0" shadow="0" extFonts="Permanent Marker^https://fonts.googleapis.com/css?family=Permanent+Marker">
      <root>
        <mxCell id="0" />
        <mxCell id="1" parent="0" />
        <mxCell id="srv3Akw763_rH6EvhWY8-1" value="&lt;font face=&quot;Lucida Console&quot;&gt;DAILY EXPENSE&lt;/font&gt;" style="rounded=0;whiteSpace=wrap;html=1;" vertex="1" parent="1">
          <mxGeometry x="610" y="280" width="120" height="60" as="geometry" />
        </mxCell>
        <mxCell id="srv3Akw763_rH6EvhWY8-2" value="&lt;font face=&quot;Lucida Console&quot;&gt;USER&lt;/font&gt;" style="rounded=0;whiteSpace=wrap;html=1;" vertex="1" parent="1">
          <mxGeometry x="110" y="280" width="120" height="60" as="geometry" />
        </mxCell>
        <mxCell id="srv3Akw763_rH6EvhWY8-3" value="SPENDS" style="rhombus;whiteSpace=wrap;html=1;fontFamily=Lucida Console;" vertex="1" parent="1">
          <mxGeometry x="380" y="270" width="80" height="80" as="geometry" />
        </mxCell>
        <mxCell id="srv3Akw763_rH6EvhWY8-4" value="" style="endArrow=none;html=1;rounded=0;fontFamily=Lucida Console;entryX=0;entryY=0.5;entryDx=0;entryDy=0;" edge="1" parent="1" target="srv3Akw763_rH6EvhWY8-3">
          <mxGeometry width="50" height="50" relative="1" as="geometry">
            <mxPoint x="230" y="310" as="sourcePoint" />
            <mxPoint x="450" y="360" as="targetPoint" />
            <Array as="points">
              <mxPoint x="230" y="310" />
            </Array>
          </mxGeometry>
        </mxCell>
        <mxCell id="srv3Akw763_rH6EvhWY8-5" value="" style="endArrow=none;html=1;rounded=0;fontFamily=Lucida Console;entryX=0;entryY=0.5;entryDx=0;entryDy=0;exitX=1;exitY=0.5;exitDx=0;exitDy=0;" edge="1" parent="1" source="srv3Akw763_rH6EvhWY8-3" target="srv3Akw763_rH6EvhWY8-1">
          <mxGeometry width="50" height="50" relative="1" as="geometry">
            <mxPoint x="400" y="410" as="sourcePoint" />
            <mxPoint x="450" y="360" as="targetPoint" />
            <Array as="points" />
          </mxGeometry>
        </mxCell>
        <mxCell id="srv3Akw763_rH6EvhWY8-6" value="ID" style="ellipse;whiteSpace=wrap;html=1;fontFamily=Lucida Console;" vertex="1" parent="1">
          <mxGeometry x="30" y="170" width="90" height="60" as="geometry" />
        </mxCell>
        <mxCell id="srv3Akw763_rH6EvhWY8-7" value="NAME" style="ellipse;whiteSpace=wrap;html=1;fontFamily=Lucida Console;" vertex="1" parent="1">
          <mxGeometry x="130" y="170" width="90" height="60" as="geometry" />
        </mxCell>
        <mxCell id="srv3Akw763_rH6EvhWY8-8" value="ADDRESS" style="ellipse;whiteSpace=wrap;html=1;fontFamily=Lucida Console;" vertex="1" parent="1">
          <mxGeometry x="230" y="170" width="90" height="60" as="geometry" />
        </mxCell>
        <mxCell id="srv3Akw763_rH6EvhWY8-9" value="" style="endArrow=none;html=1;rounded=0;fontFamily=Lucida Console;entryX=0.5;entryY=1;entryDx=0;entryDy=0;exitX=0;exitY=0;exitDx=0;exitDy=0;" edge="1" parent="1" source="srv3Akw763_rH6EvhWY8-2" target="srv3Akw763_rH6EvhWY8-6">
          <mxGeometry width="50" height="50" relative="1" as="geometry">
            <mxPoint x="400" y="410" as="sourcePoint" />
            <mxPoint x="450" y="360" as="targetPoint" />
          </mxGeometry>
        </mxCell>
        <mxCell id="srv3Akw763_rH6EvhWY8-11" value="" style="endArrow=none;html=1;rounded=0;fontFamily=Lucida Console;entryX=0.5;entryY=1;entryDx=0;entryDy=0;" edge="1" parent="1" source="srv3Akw763_rH6EvhWY8-2" target="srv3Akw763_rH6EvhWY8-7">
          <mxGeometry width="50" height="50" relative="1" as="geometry">
            <mxPoint x="340" y="380" as="sourcePoint" />
            <mxPoint x="450" y="360" as="targetPoint" />
          </mxGeometry>
        </mxCell>
        <mxCell id="srv3Akw763_rH6EvhWY8-12" value="" style="endArrow=none;html=1;rounded=0;fontFamily=Lucida Console;exitX=1;exitY=0;exitDx=0;exitDy=0;" edge="1" parent="1" source="srv3Akw763_rH6EvhWY8-2" target="srv3Akw763_rH6EvhWY8-8">
          <mxGeometry width="50" height="50" relative="1" as="geometry">
            <mxPoint x="260" y="260" as="sourcePoint" />
            <mxPoint x="263.125" y="210" as="targetPoint" />
          </mxGeometry>
        </mxCell>
        <mxCell id="srv3Akw763_rH6EvhWY8-13" value="ID" style="ellipse;whiteSpace=wrap;html=1;fontFamily=Lucida Console;" vertex="1" parent="1">
          <mxGeometry x="520" y="170" width="90" height="60" as="geometry" />
        </mxCell>
        <mxCell id="srv3Akw763_rH6EvhWY8-14" value="DATE" style="ellipse;whiteSpace=wrap;html=1;fontFamily=Lucida Console;" vertex="1" parent="1">
          <mxGeometry x="720" y="170" width="90" height="60" as="geometry" />
        </mxCell>
        <mxCell id="srv3Akw763_rH6EvhWY8-15" value="EXPENSE" style="ellipse;whiteSpace=wrap;html=1;fontFamily=Lucida Console;" vertex="1" parent="1">
          <mxGeometry x="620" y="170" width="90" height="60" as="geometry" />
        </mxCell>
        <mxCell id="srv3Akw763_rH6EvhWY8-16" value="AMOUNT" style="ellipse;whiteSpace=wrap;html=1;fontFamily=Lucida Console;" vertex="1" parent="1">
          <mxGeometry x="620" y="400" width="90" height="60" as="geometry" />
        </mxCell>
        <mxCell id="srv3Akw763_rH6EvhWY8-17" value="NOTES" style="ellipse;whiteSpace=wrap;html=1;fontFamily=Lucida Console;" vertex="1" parent="1">
          <mxGeometry x="720" y="400" width="90" height="60" as="geometry" />
        </mxCell>
        <mxCell id="srv3Akw763_rH6EvhWY8-18" value="" style="endArrow=none;html=1;rounded=0;fontFamily=Lucida Console;entryX=0.656;entryY=0.983;entryDx=0;entryDy=0;entryPerimeter=0;" edge="1" parent="1" target="srv3Akw763_rH6EvhWY8-13">
          <mxGeometry width="50" height="50" relative="1" as="geometry">
            <mxPoint x="610" y="280" as="sourcePoint" />
            <mxPoint x="580" y="220" as="targetPoint" />
          </mxGeometry>
        </mxCell>
        <mxCell id="srv3Akw763_rH6EvhWY8-19" value="" style="endArrow=none;html=1;rounded=0;fontFamily=Lucida Console;exitX=0.433;exitY=0.017;exitDx=0;exitDy=0;exitPerimeter=0;entryX=0.5;entryY=1;entryDx=0;entryDy=0;" edge="1" parent="1" source="srv3Akw763_rH6EvhWY8-1" target="srv3Akw763_rH6EvhWY8-15">
          <mxGeometry width="50" height="50" relative="1" as="geometry">
            <mxPoint x="660" y="240" as="sourcePoint" />
            <mxPoint x="689.1994451285223" y="188.0898753270717" as="targetPoint" />
          </mxGeometry>
        </mxCell>
        <mxCell id="srv3Akw763_rH6EvhWY8-20" value="" style="endArrow=none;html=1;rounded=0;fontFamily=Lucida Console;exitX=1;exitY=0;exitDx=0;exitDy=0;entryX=0.5;entryY=1;entryDx=0;entryDy=0;" edge="1" parent="1" source="srv3Akw763_rH6EvhWY8-1" target="srv3Akw763_rH6EvhWY8-14">
          <mxGeometry width="50" height="50" relative="1" as="geometry">
            <mxPoint x="750" y="250" as="sourcePoint" />
            <mxPoint x="779.1994451285223" y="198.0898753270717" as="targetPoint" />
          </mxGeometry>
        </mxCell>
        <mxCell id="srv3Akw763_rH6EvhWY8-21" value="" style="endArrow=none;html=1;rounded=0;fontFamily=Lucida Console;exitX=0.5;exitY=0;exitDx=0;exitDy=0;entryX=0.433;entryY=1.033;entryDx=0;entryDy=0;entryPerimeter=0;" edge="1" parent="1" source="srv3Akw763_rH6EvhWY8-16" target="srv3Akw763_rH6EvhWY8-1">
          <mxGeometry width="50" height="50" relative="1" as="geometry">
            <mxPoint x="660" y="360" as="sourcePoint" />
            <mxPoint x="689.1994451285223" y="308.0898753270717" as="targetPoint" />
          </mxGeometry>
        </mxCell>
        <mxCell id="srv3Akw763_rH6EvhWY8-22" value="" style="endArrow=none;html=1;rounded=0;fontFamily=Lucida Console;exitX=0.333;exitY=0;exitDx=0;exitDy=0;exitPerimeter=0;entryX=0.825;entryY=1.017;entryDx=0;entryDy=0;entryPerimeter=0;" edge="1" parent="1" source="srv3Akw763_rH6EvhWY8-17" target="srv3Akw763_rH6EvhWY8-1">
          <mxGeometry width="50" height="50" relative="1" as="geometry">
            <mxPoint x="730" y="360" as="sourcePoint" />
            <mxPoint x="759.1994451285223" y="308.0898753270717" as="targetPoint" />
          </mxGeometry>
        </mxCell>
      </root>
    </mxGraphModel>
  </diagram>
</mxfile>
